                    <svg viewBox="0 0 500 400" fill="none" xmlns="http://www.w3.org/2000/svg">
                        <circle className="float-slow" cx="250" cy="200" r="180" fill="#E8F4F8"/>
                        
                        <g className="book-container">
                            <ellipse cx="250" cy="280" rx="100" ry="15" fill="#000" opacity="0.1"/>
                            
                            <path d="M150 150 Q150 120 180 120 L240 120 L240 260 L180 260 Q150 260 150 230 Z" 
                                  fill="#FFFFFF" stroke="#A8D8EA" stroke-width="2" className="page-left"/>
                            
                            <path d="M260 120 L320 120 Q350 120 350 150 L350 230 Q350 260 320 260 L260 260 Z" 
                                  fill="#FFFFFF" stroke="#A8D8EA" stroke-width="2" className="page-right"/>
                            
                            <rect x="245" y="120" width="10" height="140" fill="#A8D8EA"/>
                            
                            <line x1="170" y1="145" x2="230" y2="145" stroke="#A8D8EA" stroke-width="2" opacity="0.6" className="text-line"/>
                            <line x1="170" y1="160" x2="225" y2="160" stroke="#A8D8EA" stroke-width="2" opacity="0.6" className="text-line"/>
                            <line x1="170" y1="175" x2="230" y2="175" stroke="#A8D8EA" stroke-width="2" opacity="0.6" className="text-line"/>
                            <line x1="170" y1="190" x2="220" y2="190" stroke="#A8D8EA" stroke-width="2" opacity="0.6" className="text-line"/>
                            
                            <line x1="270" y1="145" x2="330" y2="145" stroke="#A8D8EA" stroke-width="2" opacity="0.6" className="text-line"/>
                            <line x1="275" y1="160" x2="330" y2="160" stroke="#A8D8EA" stroke-width="2" opacity="0.6" className="text-line"/>
                            <line x1="270" y1="175" x2="330" y2="175" stroke="#A8D8EA" stroke-width="2" opacity="0.6" className="text-line"/>
                            <line x1="280" y1="190" x2="330" y2="190" stroke="#A8D8EA" stroke-width="2" opacity="0.6" className="text-line"/>
                        </g>
                        
                        <circle className="float-1" cx="380" cy="100" r="25" fill="#FFE9A0"/>
                        <circle className="float-2" cx="120" cy="280" r="20" fill="#FFCCE1"/>
                        <circle className="float-3" cx="400" cy="280" r="15" fill="#B39DDB"/>
                        
                        <g className="sparkle sparkle-1">
                            <path d="M100 120 L102 128 L110 130 L102 132 L100 140 L98 132 L90 130 L98 128 Z" fill="#FFE9A0"/>
                        </g>
                        <g className="sparkle sparkle-2">
                            <path d="M380 200 L382 206 L388 208 L382 210 L380 216 L378 210 L372 208 L378 206 Z" fill="#FFCCE1"/>
                        </g>
                        <g className="sparkle sparkle-3">
                            <path d="M420 150 L422 156 L428 158 L422 160 L420 166 L418 160 L412 158 L418 156 Z" fill="#90CAF9"/>
                        </g>
                        
                        <g className="pencil">
                            <rect x="360" y="240" width="12" height="60" rx="2" fill="#FFE9A0" transform="rotate(-25 366 270)"/>
                            <polygon points="366,230 360,240 372,240" fill="#FFCCE1" transform="rotate(-25 366 235)"/>
                            <line x1="366" y1="280" x2="366" y2="300" stroke="#4A5568" stroke-width="1" transform="rotate(-25 366 290)"/>
                        </g>
                    </svg>