            <svg viewBox="0 0 600 800" fill="none" xmlns="http://www.w3.org/2000/svg">
                <defs>
                    <linearGradient id="loginGradient" x1="0%" y1="0%" x2="100%" y2="100%">
                        <stop offset="0%" style="stop-color:#A8D8EA;stop-opacity:1" />
                        <stop offset="50%" style="stop-color:#90CAF9;stop-opacity:1" />
                        <stop offset="100%" style="stop-color:#B39DDB;stop-opacity:1" />
                    </linearGradient>
                </defs>
                
                <rect width="600" height="800" fill="url(#loginGradient)"/>
                
                <circle class="float-bg-1" cx="80" cy="80" r="50" fill="white" opacity="0.1"/>
                <circle class="float-bg-2" cx="520" cy="720" r="70" fill="white" opacity="0.08"/>
                <circle class="float-bg-3" cx="550" cy="150" r="35" fill="#FFE9A0" opacity="0.3"/>
                
                <g transform="translate(100, 150)">
                    <g class="book-main">
                        <ellipse cx="200" cy="380" rx="150" ry="20" fill="#000" opacity="0.1"/>
                        
                        <path d="M100 250 L100 350 Q100 370 120 370 L280 370 Q300 370 300 350 L300 250 Q300 230 280 230 L200 230 L120 230 Q100 230 100 250 Z" 
                              fill="#FFFFFF" stroke="#A8D8EA" stroke-width="3"/>
                        
                        <rect x="195" y="230" width="10" height="140" fill="#A8D8EA"/>
                        
                        <line x1="120" y1="260" x2="190" y2="260" stroke="#90CAF9" stroke-width="2" opacity="0.5" class="text-line"/>
                        <line x1="120" y1="280" x2="180" y2="280" stroke="#90CAF9" stroke-width="2" opacity="0.5" class="text-line"/>
                        <line x1="120" y1="300" x2="190" y2="300" stroke="#90CAF9" stroke-width="2" opacity="0.5" class="text-line"/>
                        
                        <line x1="210" y1="260" x2="280" y2="260" stroke="#90CAF9" stroke-width="2" opacity="0.5" class="text-line"/>
                        <line x1="210" y1="280" x2="270" y2="280" stroke="#90CAF9" stroke-width="2" opacity="0.5" class="text-line"/>
                        <line x1="210" y1="300" x2="280" y2="300" stroke="#90CAF9" stroke-width="2" opacity="0.5" class="text-line"/>
                    </g>
                    
                    <g class="student-char">
                        <circle cx="200" cy="150" r="35" fill="#FFE9A0" class="head"/>
                        <circle cx="190" cy="145" r="3" fill="#4A5568"/>
                        <circle cx="210" cy="145" r="3" fill="#4A5568"/>
                        <path d="M190 155 Q200 160 210 155" stroke="#4A5568" stroke-width="2" fill="none"/>
                        
                        <rect x="175" y="180" width="50" height="60" rx="10" fill="#A8D8EA" class="body"/>
                        <rect x="160" y="190" width="15" height="40" rx="7" fill="#A8D8EA" class="arm-left"/>
                        <rect x="225" y="190" width="15" height="40" rx="7" fill="#A8D8EA" class="arm-right"/>
                    </g>
                    
                    <g class="float-icon-1">
                        <circle cx="80" cy="180" r="25" fill="#FFCCE1" opacity="0.9"/>
                        <rect x="70" y="172" width="20" height="16" rx="2" fill="white"/>
                        <line x1="73" y1="176" x2="87" y2="176" stroke="#FFCCE1" stroke-width="1.5"/>
                        <line x1="73" y1="180" x2="85" y2="180" stroke="#FFCCE1" stroke-width="1.5"/>
                    </g>
                    
                    <g class="float-icon-2">
                        <circle cx="320" cy="200" r="28" fill="#FFE9A0" opacity="0.9"/>
                        <path d="M310 200 L317 210 L335 190" stroke="white" stroke-width="3" stroke-linecap="round" fill="none"/>
                    </g>
                    
                    <g class="float-icon-3">
                        <circle cx="350" cy="320" r="22" fill="#B39DDB" opacity="0.9"/>
                        <polygon points="350,310 345,318 350,325 355,318" fill="white"/>
                        <circle cx="350" cy="328" r="2" fill="white"/>
                    </g>
                </g>
                
                <g class="sparkle login-sparkle-1">
                    <path d="M100 600 L104 614 L118 618 L104 622 L100 636 L96 622 L82 618 L96 614 Z" fill="#FFE9A0" opacity="0.8"/>
                </g>
                <g class="sparkle login-sparkle-2">
                    <path d="M500 250 L503 260 L513 263 L503 266 L500 276 L497 266 L487 263 L497 260 Z" fill="white" opacity="0.9"/>
                </g>
                <g class="sparkle login-sparkle-3">
                    <path d="M120 100 L122 107 L129 109 L122 111 L120 118 L118 111 L111 109 L118 107 Z" fill="#FFCCE1" opacity="0.8"/>
                </g>
                <g class="sparkle login-sparkle-4">
                    <path d="M480 450 L482 457 L489 459 L482 461 L480 468 L478 461 L471 459 L478 457 Z" fill="white" opacity="0.7"/>
                </g>
                
                <text x="300" y="620" font-family="Arial, sans-serif" font-size="42" fill="white" text-anchor="middle" font-weight="bold">Welcome Back!</text>
                <text x="300" y="660" font-family="Arial, sans-serif" font-size="18" fill="white" text-anchor="middle" opacity="0.95">Sign in to continue your learning journey</text>
            </svg>