<svg width="20" height="20" viewBox="0 0 20 20" fill="none" xmlns="http://www.w3.org/2000/svg">
    <path d="M18 10.2C18 9.6 17.95 9.05 17.85 8.5H10V11.7H14.5C14.3 12.7 13.75 13.55 12.95 14.1V16.1H15.6C17.1 14.7 18 12.6 18 10.2Z" fill="#4285F4"/>
    <path d="M10 18C12.2 18 14.05 17.25 15.6 16.1L12.95 14.1C12.25 14.55 11.35 14.85 10 14.85C7.9 14.85 6.1 13.45 5.45 11.55H2.7V13.6C4.25 16.65 6.9 18 10 18Z" fill="#34A853"/>
    <path d="M5.45 11.55C5.25 10.95 5.15 10.3 5.15 9.65C5.15 9 5.25 8.35 5.45 7.75V5.7H2.7C2.05 7 1.7 8.3 1.7 9.65C1.7 11 2.05 12.3 2.7 13.6L5.45 11.55Z" fill="#FBBC05"/>
    <path d="M10 4.45C11.45 4.45 12.75 4.95 13.75 5.9L16.1 3.55C14.4 1.95 12.2 1 10 1C6.9 1 4.25 2.35 2.7 5.4L5.45 7.45C6.1 5.55 7.9 4.45 10 4.45Z" fill="#EA4335"/>
</svg>
